<?xml version="1.0" encoding="utf-8"?>
<!-- Generator: Adobe Illustrator 21.0.2, SVG Export Plug-In . SVG Version: 6.00 Build 0)  -->
<svg version="1.1" id="Layer_1" xmlns="http://www.w3.org/2000/svg" xmlns:xlink="http://www.w3.org/1999/xlink" x="0px" y="0px"
	 viewBox="0 0 575 570" style="enable-background:new 0 0 575 570;" xml:space="preserve">
<style type="text/css">
	.st0{clip-path:url(#SVGID_2_);fill:#CACAFF;}
	.st1{clip-path:url(#SVGID_2_);fill:#BBBBFF;}
	.st2{clip-path:url(#SVGID_2_);fill:#4343FF;}
	.st3{clip-path:url(#SVGID_2_);fill:#2E2EFF;}
	.st4{clip-path:url(#SVGID_2_);fill:#0F0FFF;}
	.st5{clip-path:url(#SVGID_2_);fill:#6868FF;}
	.st6{clip-path:url(#SVGID_2_);fill:#6262FF;}
	.st7{clip-path:url(#SVGID_2_);fill:#D5D5FF;}
	.st8{clip-path:url(#SVGID_2_);fill:#6D6DFF;}
	.st9{clip-path:url(#SVGID_2_);fill:#4E4EFF;}
	.st10{clip-path:url(#SVGID_2_);fill:#0000FF;}
	.st11{clip-path:url(#SVGID_2_);fill:#D0D0FF;}
	.st12{clip-path:url(#SVGID_2_);fill:#C0C0FF;}
	.st13{clip-path:url(#SVGID_2_);fill:#2929FF;}
	.st14{clip-path:url(#SVGID_2_);fill:#0505FF;}
	.st15{clip-path:url(#SVGID_2_);fill:#9191FF;}
	.st16{clip-path:url(#SVGID_2_);fill:#F9F9FF;}
	.st17{clip-path:url(#SVGID_2_);fill:#DFDFFF;}
	.st18{clip-path:url(#SVGID_2_);fill:#A6A6FF;}
	.st19{clip-path:url(#SVGID_2_);fill:#3434FF;}
	.st20{clip-path:url(#SVGID_2_);fill:#7777FF;}
	.st21{clip-path:url(#SVGID_2_);fill:#1A1AFF;}
	.st22{clip-path:url(#SVGID_2_);fill:#1414FF;}
	.st23{clip-path:url(#SVGID_2_);fill:#FFFFFF;}
	.st24{clip-path:url(#SVGID_2_);fill:#A1A1FF;}
	.st25{font-family:'ArialMT';}
	.st26{font-size:8px;}
	.st27{clip-path:url(#SVGID_4_);}
	.st28{font-size:6.1213px;}
</style>
<g>
	<defs>
		<rect id="SVGID_1_" x="139" y="44.2" width="250" height="183.3"/>
	</defs>
	<clipPath id="SVGID_2_">
		<use xlink:href="#SVGID_1_"  style="overflow:visible;"/>
	</clipPath>
	<rect x="139" y="204.5" class="st0" width="35.7" height="22.9"/>
	<rect x="139" y="181.6" class="st1" width="35.7" height="22.9"/>
	<rect x="139" y="158.7" class="st2" width="35.7" height="22.9"/>
	<rect x="139" y="135.8" class="st1" width="35.7" height="22.9"/>
	<rect x="139" y="112.9" class="st3" width="35.7" height="22.9"/>
	<rect x="139" y="90" class="st4" width="35.7" height="22.9"/>
	<rect x="139" y="67.1" class="st5" width="35.7" height="22.9"/>
	<rect x="139" y="44.2" class="st6" width="35.7" height="22.9"/>
	<rect x="174.7" y="204.5" class="st7" width="35.7" height="22.9"/>
	<rect x="174.7" y="181.6" class="st1" width="35.7" height="22.9"/>
	<rect x="174.7" y="158.7" class="st8" width="35.7" height="22.9"/>
	<rect x="174.7" y="135.8" class="st1" width="35.7" height="22.9"/>
	<rect x="174.7" y="112.9" class="st9" width="35.7" height="22.9"/>
	<rect x="174.7" y="90" class="st10" width="35.7" height="22.9"/>
	<rect x="174.7" y="67.1" class="st2" width="35.7" height="22.9"/>
	<rect x="174.7" y="44.2" class="st9" width="35.7" height="22.9"/>
	<rect x="210.4" y="204.5" class="st11" width="35.7" height="22.9"/>
	<rect x="210.4" y="181.6" class="st12" width="35.7" height="22.9"/>
	<rect x="210.4" y="158.7" class="st8" width="35.7" height="22.9"/>
	<rect x="210.4" y="135.8" class="st1" width="35.7" height="22.9"/>
	<rect x="210.4" y="112.9" class="st13" width="35.7" height="22.9"/>
	<rect x="210.4" y="90" class="st14" width="35.7" height="22.9"/>
	<rect x="210.4" y="67.1" class="st2" width="35.7" height="22.9"/>
	<rect x="210.4" y="44.2" class="st15" width="35.7" height="22.9"/>
	<rect x="246.1" y="204.5" class="st16" width="35.7" height="22.9"/>
	<rect x="246.1" y="181.6" class="st17" width="35.7" height="22.9"/>
	<rect x="246.1" y="158.7" class="st1" width="35.7" height="22.9"/>
	<rect x="246.1" y="135.8" class="st0" width="35.7" height="22.9"/>
	<rect x="246.1" y="112.9" class="st18" width="35.7" height="22.9"/>
	<rect x="246.1" y="90" class="st10" width="35.7" height="22.9"/>
	<rect x="246.1" y="67.1" class="st6" width="35.7" height="22.9"/>
	<rect x="246.1" y="44.2" class="st19" width="35.7" height="22.9"/>
	<rect x="281.9" y="204.5" class="st18" width="35.7" height="22.9"/>
	<rect x="281.9" y="181.6" class="st20" width="35.7" height="22.9"/>
	<rect x="281.9" y="158.7" class="st6" width="35.7" height="22.9"/>
	<rect x="281.9" y="135.8" class="st1" width="35.7" height="22.9"/>
	<rect x="281.9" y="112.9" class="st21" width="35.7" height="22.9"/>
	<rect x="281.9" y="90" class="st4" width="35.7" height="22.9"/>
	<rect x="281.9" y="67.1" class="st22" width="35.7" height="22.9"/>
	<rect x="281.9" y="44.2" class="st19" width="35.7" height="22.9"/>
	<rect x="317.6" y="204.5" class="st23" width="35.7" height="22.9"/>
	<rect x="317.6" y="181.6" class="st0" width="35.7" height="22.9"/>
	<rect x="317.6" y="158.7" class="st24" width="35.7" height="22.9"/>
	<rect x="317.6" y="135.8" class="st7" width="35.7" height="22.9"/>
	<rect x="317.6" y="112.9" class="st18" width="35.7" height="22.9"/>
	<rect x="317.6" y="90" class="st5" width="35.7" height="22.9"/>
	<rect x="317.6" y="67.1" class="st6" width="35.7" height="22.9"/>
	<rect x="317.6" y="44.2" class="st19" width="35.7" height="22.9"/>
	<rect x="353.3" y="204.5" class="st23" width="35.7" height="22.9"/>
	<rect x="353.3" y="181.6" class="st17" width="35.7" height="22.9"/>
	<rect x="353.3" y="158.7" class="st24" width="35.7" height="22.9"/>
	<rect x="353.3" y="135.8" class="st7" width="35.7" height="22.9"/>
	<rect x="353.3" y="112.9" class="st1" width="35.7" height="22.9"/>
	<rect x="353.3" y="90" class="st6" width="35.7" height="22.9"/>
	<rect x="353.3" y="67.1" class="st19" width="35.7" height="22.9"/>
	<rect x="353.3" y="44.2" class="st13" width="35.7" height="22.9"/>
</g>
<text transform="matrix(-6.123234e-17 -1.048 1 -6.417075e-17 156.8536 277.7974)" class="st25 st26">tybalt.depth1</text>
<text transform="matrix(-6.123234e-17 -1.048 1 -6.417075e-17 192.5656 277.7974)" class="st25 st26">tybalt.depth2</text>
<text transform="matrix(-6.123234e-17 -1.048 1 -6.417075e-17 228.2833 277.7964)" class="st25 st26">tybalt.depth3</text>
<text transform="matrix(-6.123234e-17 -1.048 1 -6.417075e-17 263.9952 254.315)" class="st25 st26">tnse</text>
<text transform="matrix(-6.123234e-17 -1.048 1 -6.417075e-17 299.7135 258.0567)" class="st25 st26">umap</text>
<text transform="matrix(-6.123234e-17 -1.048 1 -6.417075e-17 335.4303 255.5215)"><tspan x="0" y="0" class="st25 st26">ZI</tspan><tspan x="7.1" y="0" class="st25 st26">F</tspan><tspan x="11.4" y="0" class="st25 st26">A</tspan></text>
<text transform="matrix(-6.123234e-17 -1.048 1 -6.417075e-17 371.1422 252.6138)" class="st25 st26">pca</text>
<text transform="matrix(1.0191 0 0 1 395.9865 218.1758)" class="st25 st26">melanoma</text>
<text transform="matrix(1.0191 0 0 1 395.9865 195.2637)"><tspan x="0" y="0" class="st25 st26">P</tspan><tspan x="4.9" y="0" class="st25 st26">etropoulos</tspan></text>
<text transform="matrix(1.0191 0 0 1 395.9865 172.3575)" class="st25 st26">baron−human</text>
<text transform="matrix(1.0191 0 0 1 395.9865 149.4517)"><tspan x="0" y="0" class="st25 st26">nestor</tspan><tspan x="22.2" y="0" class="st25 st26">ow</tspan><tspan x="32.2" y="0" class="st25 st26">a</tspan></text>
<text transform="matrix(1.0191 0 0 1 395.9865 126.5396)" class="st25 st26">patel</text>
<text transform="matrix(1.0191 0 0 1 395.9865 103.6334)" class="st25 st26">pollen</text>
<text transform="matrix(1.0191 0 0 1 395.9865 80.7276)" class="st25 st26">goolam</text>
<text transform="matrix(1.0191 0 0 1 395.9865 57.8155)"><tspan x="0" y="0" class="st25 st26">y</tspan><tspan x="3.8" y="0" class="st25 st26">an</tspan></text>
<g>
	<defs>
		<rect id="SVGID_3_" x="139" y="44.2" width="250" height="183.3"/>
	</defs>
	<clipPath id="SVGID_4_">
		<use xlink:href="#SVGID_3_"  style="overflow:visible;"/>
	</clipPath>
	<g class="st27">
		<text transform="matrix(0.9542 0 0 1 151.1728 218.0723)" class="st25 st28">0.31</text>
	</g>
	<g class="st27">
		<text transform="matrix(0.9542 0 0 1 186.8852 218.0723)" class="st25 st28">0.28</text>
	</g>
	<g class="st27">
		<text transform="matrix(0.9542 0 0 1 222.6024 218.0723)" class="st25 st28">0.29</text>
	</g>
	<g class="st27">
		<text transform="matrix(0.9542 0 0 1 258.3144 218.0723)" class="st25 st28">0.17</text>
	</g>
	<g class="st27">
		<text transform="matrix(0.9542 0 0 1 294.0326 218.0723)" class="st25 st28">0.41</text>
	</g>
	<g class="st27">
		<text transform="matrix(0.9542 0 0 1 329.7504 218.0723)" class="st25 st28">0.15</text>
	</g>
	<g class="st27">
		<text transform="matrix(0.9542 0 0 1 365.4623 218.0723)" class="st25 st28">0.15</text>
	</g>
	<g class="st27">
		<text transform="matrix(0.9542 0 0 1 151.1728 195.1592)" class="st25 st28">0.35</text>
	</g>
	<g class="st27">
		<text transform="matrix(0.9542 0 0 1 186.8852 195.1592)" class="st25 st28">0.35</text>
	</g>
	<g class="st27">
		<text transform="matrix(0.9542 0 0 1 222.6024 195.1592)" class="st25 st28">0.33</text>
	</g>
	<g class="st27">
		<text transform="matrix(0.9542 0 0 1 258.3144 195.1592)" class="st25 st28">0.25</text>
	</g>
	<g class="st27">
		<text transform="matrix(0.9542 0 0 1 294.0326 195.1592)" class="st25 st28">0.54</text>
	</g>
	<g class="st27">
		<text transform="matrix(0.9542 0 0 1 331.3734 195.1592)" class="st25 st28">0.3</text>
	</g>
	<g class="st27">
		<text transform="matrix(0.9542 0 0 1 365.4623 195.1592)" class="st25 st28">0.24</text>
	</g>
	<g class="st27">
		<text transform="matrix(0.9542 0 0 1 151.1728 172.253)" class="st25 st28">0.68</text>
	</g>
	<g class="st27">
		<text transform="matrix(0.9542 0 0 1 186.8852 172.253)" class="st25 st28">0.57</text>
	</g>
	<g class="st27">
		<text transform="matrix(0.9542 0 0 1 222.6024 172.253)" class="st25 st28">0.56</text>
	</g>
	<g class="st27">
		<text transform="matrix(0.9542 0 0 1 258.3144 172.253)" class="st25 st28">0.34</text>
	</g>
	<g class="st27">
		<text transform="matrix(0.9542 0 0 1 294.0326 172.253)" class="st25 st28">0.59</text>
	</g>
	<g class="st27">
		<text transform="matrix(0.9542 0 0 1 329.7504 172.253)" class="st25 st28">0.42</text>
	</g>
	<g class="st27">
		<text transform="matrix(0.9542 0 0 1 365.4623 172.253)" class="st25 st28">0.42</text>
	</g>
	<g class="st27">
		<text transform="matrix(0.9542 0 0 1 151.1728 149.3472)" class="st25 st28">0.35</text>
	</g>
	<g class="st27">
		<text transform="matrix(0.9542 0 0 1 186.8852 149.3472)" class="st25 st28">0.35</text>
	</g>
	<g class="st27">
		<text transform="matrix(0.9542 0 0 1 222.6024 149.3472)" class="st25 st28">0.35</text>
	</g>
	<g class="st27">
		<text transform="matrix(0.9542 0 0 1 258.3144 149.3472)" class="st25 st28">0.31</text>
	</g>
	<g class="st27">
		<text transform="matrix(0.9542 0 0 1 294.0326 149.3472)" class="st25 st28">0.34</text>
	</g>
	<g class="st27">
		<text transform="matrix(0.9542 0 0 1 329.7504 149.3472)" class="st25 st28">0.27</text>
	</g>
	<g class="st27">
		<text transform="matrix(0.9542 0 0 1 365.4623 149.3472)" class="st25 st28">0.28</text>
	</g>
	<g class="st27">
		<text transform="matrix(0.9542 0 0 1 151.1728 126.4356)" class="st25 st28">0.74</text>
	</g>
	<g class="st27">
		<text transform="matrix(0.9542 0 0 1 186.8852 126.4356)" class="st25 st28">0.65</text>
	</g>
	<g class="st27">
		<text transform="matrix(0.9542 0 0 1 222.6024 126.4356)" class="st25 st28">0.75</text>
	</g>
	<g class="st27">
		<text transform="matrix(0.9542 0 0 1 258.3144 126.4356)" class="st25 st28">0.41</text>
	</g>
	<g class="st27">
		<text transform="matrix(0.9542 0 0 1 295.6566 126.4356)" class="st25 st28">0.8</text>
	</g>
	<g class="st27">
		<text transform="matrix(0.9542 0 0 1 331.3734 126.4356)" class="st25 st28">0.4</text>
	</g>
	<g class="st27">
		<text transform="matrix(0.9542 0 0 1 365.4623 126.4356)" class="st25 st28">0.35</text>
	</g>
	<g class="st27">
		<text transform="matrix(0.9542 0 0 1 151.1728 103.5289)" class="st25 st28">0.83</text>
	</g>
	<g class="st27">
		<text transform="matrix(0.9542 0 0 1 186.8852 103.5289)" class="st25 st28">0.88</text>
	</g>
	<g class="st27">
		<text transform="matrix(0.9542 0 0 1 222.6024 103.5289)" class="st25 st28">0.86</text>
	</g>
	<g class="st27">
		<text transform="matrix(0.9542 0 0 1 258.3144 103.5289)" class="st25 st28">0.87</text>
	</g>
	<g class="st27">
		<text transform="matrix(0.9542 0 0 1 294.0326 103.5289)" class="st25 st28">0.83</text>
	</g>
	<g class="st27">
		<text transform="matrix(0.9542 0 0 1 329.7504 103.5289)" class="st25 st28">0.58</text>
	</g>
	<g class="st27">
		<text transform="matrix(0.9542 0 0 1 367.0863 103.5289)" class="st25 st28">0.6</text>
	</g>
	<g class="st27">
		<text transform="matrix(0.9542 0 0 1 151.1728 80.6231)" class="st25 st28">0.58</text>
	</g>
	<g class="st27">
		<text transform="matrix(0.9542 0 0 1 186.8852 80.6231)" class="st25 st28">0.69</text>
	</g>
	<g class="st27">
		<text transform="matrix(0.9542 0 0 1 222.6024 80.6231)" class="st25 st28">0.68</text>
	</g>
	<g class="st27">
		<text transform="matrix(0.9542 0 0 1 259.9384 80.6231)" class="st25 st28">0.6</text>
	</g>
	<g class="st27">
		<text transform="matrix(0.9542 0 0 1 294.0326 80.6231)" class="st25 st28">0.81</text>
	</g>
	<g class="st27">
		<text transform="matrix(0.9542 0 0 1 329.7504 80.6231)" class="st25 st28">0.59</text>
	</g>
	<g class="st27">
		<text transform="matrix(0.9542 0 0 1 365.4623 80.6231)" class="st25 st28">0.72</text>
	</g>
	<g class="st27">
		<text transform="matrix(0.9542 0 0 1 152.7973 57.7115)" class="st25 st28">0.6</text>
	</g>
	<g class="st27">
		<text transform="matrix(0.9542 0 0 1 186.8852 57.7115)" class="st25 st28">0.65</text>
	</g>
	<g class="st27">
		<text transform="matrix(0.9542 0 0 1 222.6024 57.7115)" class="st25 st28">0.47</text>
	</g>
	<g class="st27">
		<text transform="matrix(0.9542 0 0 1 258.3144 57.7115)" class="st25 st28">0.72</text>
	</g>
	<g class="st27">
		<text transform="matrix(0.9542 0 0 1 294.0326 57.7115)" class="st25 st28">0.72</text>
	</g>
	<g class="st27">
		<text transform="matrix(0.9542 0 0 1 329.7504 57.7115)" class="st25 st28">0.72</text>
	</g>
	<g class="st27">
		<text transform="matrix(0.9542 0 0 1 365.4623 57.7115)" class="st25 st28">0.76</text>
	</g>
</g>
<text transform="matrix(1 0 0 1 246.6667 35.223)" class="st25 st26">MNI</text>
</svg>
